<?xml version="1.0" encoding="utf-8"?>
<!-- Generator: Adobe Illustrator 25.2.1, SVG Export Plug-In . SVG Version: 6.00 Build 0)  -->
<svg version="1.1" id="Layer_1" xmlns="http://www.w3.org/2000/svg" xmlns:xlink="http://www.w3.org/1999/xlink" x="0px" y="0px"
	 viewBox="0 0 489.4 415.7" style="enable-background:new 0 0 489.4 415.7;" xml:space="preserve">
<style type="text/css">
	.st0{fill:#231F20;stroke:#231F20;stroke-miterlimit:10;}
	.st1{fill:none;stroke:#000000;stroke-width:0.5;stroke-linecap:square;stroke-miterlimit:1;}
	.st2{fill:#231F20;}
	.st3{font-family:'Arial';}
	.st4{font-size:14px;}
	.st5{fill:#77787B;}
	.st6{letter-spacing:-1;}
</style>
<image style="overflow:visible;enable-background:new    ;" width="1920" height="926" xlink:href="time-hkg.png"  transform="matrix(0.5 0 0 0.5 0 -35.3472)">
</image>
<path class="st0" d="M270,241.3c-1.4,0-2.5,1.1-2.5,2.5s1.1,2.5,2.5,2.5s2.5-1.1,2.5-2.5C272.5,242.4,271.4,241.3,270,241.3
	C270,241.3,270,241.3,270,241.3"/>
<path class="st1" d="M204.4,257.9c-2.3-12.6-14.2-21.1-26.9-19.1"/>
<polygon points="206,255.8 205.6,255.6 204.3,257.7 202.3,256.3 202,256.7 204.5,258.4 "/>
<path class="st0" d="M227.9,97.2c-1.4,0-2.5,1.1-2.5,2.5s1.1,2.5,2.5,2.5s2.5-1.1,2.5-2.5C230.4,98.3,229.3,97.2,227.9,97.2
	C227.9,97.2,227.9,97.2,227.9,97.2"/>
<path class="st0" d="M418.4,140.7c-1.4,0-2.5,1.1-2.5,2.5s1.1,2.5,2.5,2.5s2.5-1.1,2.5-2.5C420.9,141.8,419.8,140.7,418.4,140.7
	C418.4,140.7,418.4,140.7,418.4,140.7"/>
<path class="st0" d="M98.7,338.8c-1.4,0-2.5,1.1-2.5,2.5s1.1,2.5,2.5,2.5s2.5-1.1,2.5-2.5C101.2,339.9,100.1,338.8,98.7,338.8
	C98.7,338.8,98.7,338.8,98.7,338.8"/>
<path class="st0" d="M314.2,121.7c-1.4,0-2.5,1.1-2.5,2.5s1.1,2.5,2.5,2.5s2.5-1.1,2.5-2.5C316.7,122.8,315.6,121.7,314.2,121.7
	C314.2,121.7,314.2,121.7,314.2,121.7"/>
<text transform="matrix(1 0 0 1 235.31 104.4728)" class="st2 st3 st4">Pekín</text>
<text transform="matrix(1 0 0 1 38.49 345.4528)" class="st5 st3 st4">Bangkok</text>
<text transform="matrix(1 0 0 1 423.31 147.6828)" class="st5 st3 st4 st6">T</text>
<text transform="matrix(1 0 0 1 430.31 147.6828)" class="st5 st3 st4">okio</text>
<text transform="matrix(1 0 0 1 100.63 240.6128)" class="st2 st3 st4">Hong Kong</text>
</svg>
