<?xml version="1.0" encoding="UTF-8"?>
<svg data-name="Layer 1" viewBox="0 0 960 425" xmlns="http://www.w3.org/2000/svg" xmlns:xlink="http://www.w3.org/1999/xlink">
<defs>
<style>.cls-1,.cls-2,.cls-8,.cls-9{isolation:isolate;}.cls-2,.cls-8,.cls-9{font-size:14px;}.cls-2{fill:#383838;font-family:Arial, Arial;font-weight:700;}.cls-3{letter-spacing:-0.04em;}.cls-4{letter-spacing:-0.02em;}.cls-5{opacity:0.5;}.cls-6,.cls-8{fill:#231f20;}.cls-6{stroke:#231f20;stroke-miterlimit:10;}.cls-7{fill:none;stroke:#000;stroke-linecap:square;stroke-miterlimit:1;stroke-width:0.5px;}.cls-8,.cls-9{font-family:ArialMT, Arial;}.cls-9{fill:#77787b;}.cls-10{letter-spacing:-0.11em;}</style>
</defs>
<image class="cls-1" transform="translate(0 -26) scale(.5)" width="1920" height="926" xlink:href="../img/time-hkg.svg"/>
<text class="cls-2" transform="translate(638.41 36.78)">23:00 horas LUNES 12 DE<tspan class="cls-3" x="171.96" y="0"></tspan><tspan x="175.33" y="0">AGOS</tspan><tspan class="cls-4" x="216.56" y="0">T</tspan><tspan x="224.85" y="0">O</tspan></text>
<g class="cls-5">
<text class="cls-2" transform="translate(132.27 36.78)">23:00 horas LUNES 5 DE<tspan class="cls-3" x="164.17" y="0"></tspan><tspan x="167.54" y="0">AGOS</tspan><tspan class="cls-4" x="208.77" y="0">T</tspan><tspan x="217.07" y="0">O</tspan></text>
</g>
<path class="cls-6" d="m270 250.6a2.5 2.5 0 1 0 2.5 2.5 2.48 2.48 0 0 0-2.5-2.5"/>
<path class="cls-7" d="m204.4 267.2a23.6 23.6 0 0 0-26.9-19.1"/>
<polygon points="206 265.1 205.6 264.9 204.3 267 202.3 265.6 202 266 204.5 267.7"/>
<path class="cls-6" d="m227.9 106.5a2.5 2.5 0 1 0 2.5 2.5 2.48 2.48 0 0 0-2.5-2.5"/>
<path class="cls-6" d="m418.4 150a2.5 2.5 0 1 0 2.5 2.5 2.48 2.48 0 0 0-2.5-2.5"/>
<path class="cls-6" d="m98.7 348.1a2.5 2.5 0 1 0 2.5 2.5 2.48 2.48 0 0 0-2.5-2.5"/>
<path class="cls-6" d="m314.2 131a2.5 2.5 0 1 0 2.5 2.5 2.48 2.48 0 0 0-2.5-2.5"/>
<text class="cls-8" transform="translate(235.31 113.82)">Pekín</text>
<text class="cls-9" transform="translate(38.49 354.8)">Bangkok</text>
<text class="cls-9" transform="translate(423.31 157.03)"><tspan class="cls-10">T</tspan><tspan x="7" y="0">okio</tspan></text>
<text class="cls-8" transform="translate(100.63 249.96)">Hong Kong</text>
<path class="cls-7" d="m684.7 268.9a11.53 11.53 0 0 0-13.1-9.1"/>
<polygon points="686.3 266.8 685.8 266.5 684.6 268.7 682.6 267.4 682.3 267.8 684.8 269.4"/>
<path class="cls-6" d="m706.4 104.5a2.5 2.5 0 1 0 2.5 2.5 2.54 2.54 0 0 0-2.5-2.5"/>
<path class="cls-6" d="m748.5 248.6a2.5 2.5 0 1 0 2.5 2.5 2.48 2.48 0 0 0-2.5-2.5"/>
<path class="cls-6" d="m577.2 346.1a2.5 2.5 0 1 0 2.5 2.5 2.54 2.54 0 0 0-2.5-2.5"/>
<path class="cls-6" d="m792.7 129a2.5 2.5 0 1 0 2.5 2.5 2.48 2.48 0 0 0-2.5-2.5"/>
<text class="cls-8" transform="translate(711.78 111.82)">Beijing</text>
<text class="cls-9" transform="translate(902.78 155.03)"><tspan class="cls-10">T</tspan><tspan x="7" y="0">okio</tspan></text>
<text class="cls-9" transform="translate(752.32 135.28)">Seúl</text>
<text class="cls-9" transform="translate(516.97 352.8)">Bangkok</text>
<text class="cls-8" transform="translate(598.95 262.67)">Hong Kong</text>
</svg>
