<?xml version="1.0" encoding="UTF-8"?>
<svg enable-background="new 0 0 339 491.8" version="1.1" viewBox="0 0 339 491.8" xml:space="preserve" xmlns="http://www.w3.org/2000/svg" xmlns:xlink="http://www.w3.org/1999/xlink">
<style type="text/css">
	.st0{fill:none;stroke:#C3C4C6;stroke-width:2;stroke-miterlimit:10;}
	.st1{font-family:'Arial-BoldMT';}
	.st2{font-size:16px;}
	.st3{opacity:0.5;fill:#383838;enable-background:new    ;}
	.st4{font-size:14px;}
	.st5{opacity:0.5;}
	.st6{enable-background:new    ;}
	.st7{font-family:'Arial-ItalicMT';}
	.st8{font-size:10px;}
	.st9{opacity:0.5;enable-background:new    ;}
	.st10{font-family:'ArialMT';}
	.st11{font-size:12px;}
	.st12{fill:url(#a);}
	.st13{fill:none;stroke:#000000;stroke-width:0.5;stroke-linecap:square;stroke-miterlimit:1;}
	.st14{fill:#383838;}
</style>
<image transform="matrix(.2825 0 0 .2825 0 51.939)" width="1200" height="1497" enable-background="new" overflow="visible" xlink:href="../img/hk-flights.svg">
</image>
<path class="st0" d="m190.4 183.6 5.1-2.1 1.8-2.1 2.6-4.1 2.1-3.2 2.6-0.5 2.9 0.2 4 2.4 5-2.6 6.9-2.6 2.1-4.1 3.7-1.5 4.7 1.5 4.5-0.3 4.5 0.9 7.2 1.9"/>

	<text class="st1 st2" transform="translate(126.59 241.57)">Aeropuerto</text>

<text class="st3 st1 st4" transform="translate(46.467 31.854)">SALIDAS DESDE LAS 16 HORAS</text>
<circle cx="152.3" cy="251.9" r="3"/>
<g class="st5">
	<text class="st6" transform="translate(225.19 422)"><tspan class="st7 st8" x="0" y="0">MAR DEL</tspan><tspan class="st7 st8" x="-15" y="12">SUR DE CHINA </tspan></text>
</g>
<text class="st9 st10 st11" transform="translate(141.88 155.99)">SHENZHEN</text>
<text class="st9 st1 st2" transform="translate(182.3 218.73)">HONG KONG</text>
<linearGradient id="a" x1="147.15" x2="147.15" y1="6675.8" y2="6642" gradientTransform="translate(0 -6200)" gradientUnits="userSpaceOnUse">
	<stop stop-color="#fff" offset="0"/>
	<stop stop-color="#fff" stop-opacity="0" offset="1"/>
</linearGradient>
<rect class="st12" x="85.2" y="442" width="123.9" height="33.8"/>


		<path class="st13" d="m156.4 264.2c3.8 21 23.6 35.1 44.8 31.8"/>

			<polygon points="153.7 267.7 154.4 268 156.6 264.6 159.9 266.9 160.4 266.2 156.2 263.4"/>




	<text class="st14 st1 st4" transform="translate(208 301)">Sin salidas</text>

</svg>
