<?xml version="1.0" encoding="UTF-8"?>
<svg enable-background="new 0 0 339 491.8" version="1.1" viewBox="0 0 339 491.8" xml:space="preserve" xmlns="http://www.w3.org/2000/svg" xmlns:xlink="http://www.w3.org/1999/xlink">
<style type="text/css">
	.st0{opacity:0.5;enable-background:new    ;}
	.st1{font-family:'ArialMT';}
	.st2{font-size:12px;}
	.st3{opacity:0.5;fill:#383838;enable-background:new    ;}
	.st4{font-family:'Arial-BoldMT';}
	.st5{font-size:14px;}
	.st6{opacity:0.5;fill:none;stroke:#FF513F;stroke-width:1.5;stroke-miterlimit:10;enable-background:new    ;}
	.st7{fill:none;stroke:#C4C5C7;stroke-width:2;stroke-miterlimit:10;}
	.st8{font-size:16px;}
	.st9{opacity:0.5;}
	.st10{enable-background:new    ;}
	.st11{font-family:'Arial-ItalicMT';}
	.st12{font-size:10px;}
	.st13{fill:none;stroke:url(#h);stroke-width:4;stroke-miterlimit:10;}
	.st14{fill:url(#g);}
	.st15{fill:none;stroke:url(#f);stroke-width:4;stroke-miterlimit:10;}
	.st16{fill:url(#e);}
	.st17{fill:none;stroke:url(#d);stroke-width:4;stroke-miterlimit:10;}
	.st18{fill:url(#c);}
	.st19{fill:url(#b);}
	.st20{fill:url(#a);}
</style>
<image transform="matrix(.2825 0 0 .2825 0 50.939)" width="1200" height="1497" enable-background="new" overflow="visible" xlink:href="../hk-flights.png">
</image>
<text class="st0 st1 st2" transform="translate(141.88 145.68)">SHENZHEN</text>
<text class="st3 st4 st5" transform="translate(46.895 32.302)">SALIDAS DE 12 A 13 HORAS</text>
<path class="st6" d="m152.5 250.8-45.3 16.8c-4.8 1.8-7.5 7-6.2 11.9l51.5 194.4"/>
<path class="st6" d="m152.5 250.8-44.5 17.6c-4.8 1.9-7.3 7.1-5.9 12l54.4 193.5"/>
<path class="st6" d="M152.5,251.9l-44.4,16.7c-4.8,1.8-7.4,6.9-6.2,11.8l9,35.9c1.4,5.7,7.4,8.9,12.9,7.1l24.1-8.1  c2-0.7,3.7-2,5-3.7L339,53"/>
<path class="st6" d="M152.5,251.9l-45.1,15.7c-4.9,1.7-7.7,7-6.4,12l10.1,38.1c1.4,5.1,6.4,8.3,11.6,7.2l25.8-5.1  c2.6-0.5,4.8-2,6.3-4.1L339,57"/>
<path class="st6" d="M152.5,250.8L108.7,268c-4.6,1.8-7.2,6.8-6.1,11.6l11.1,47.5c0.7,2.8,2.5,5.2,5.1,6.6L339,449.9"/>
<path class="st6" d="m152.5 250.8-44.5 17.6c-4.8 1.9-7.3 7.1-5.9 12l58.4 193.5"/>
<circle cx="152.3" cy="250.9" r="3"/>
<path class="st7" d="m190.4 183.6 5.1-2.1 1.8-2.1 2.6-4.1 2.1-3.2 2.6-0.5 2.9 0.2 4 2.4 5-2.6 6.9-2.6 2.1-4.1 3.7-1.5 4.7 1.5 4.5-0.3 4.5 0.9 7.2 1.9"/>

	<text class="st4 st8" transform="translate(126.59 240.57)">Aeropuerto</text>

<g class="st9">
	<text class="st10" transform="translate(226.19 441)"><tspan class="st11 st12" x="0" y="0">MAR DEL</tspan><tspan class="st11 st12" x="-13.6" y="12">SUR DE CHINA</tspan></text>
</g>
<g class="st9">


			<linearGradient id="h" x1="116.5" x2="116.5" y1="9032.8" y2="8987.8" gradientTransform="translate(0 -8600)" gradientUnits="userSpaceOnUse">
			<stop offset="0"/>
			<stop stop-opacity=".1223" offset=".8777"/>
			<stop stop-opacity="0" offset="1"/>
		</linearGradient>
		<line class="st13" x1="111.3" x2="121.7" y1="388.4" y2="424"/>


				<linearGradient id="g" x1="121.25" x2="121.25" y1="9032.8" y2="8987.8" gradientTransform="translate(0 -8600)" gradientUnits="userSpaceOnUse">
				<stop offset="0"/>
				<stop stop-opacity=".1223" offset=".8777"/>
				<stop stop-opacity="0" offset="1"/>
			</linearGradient>
			<polygon class="st14" points="115.5 424 124.1 432.3 127 420.6"/>


</g>
<g class="st9">


			<linearGradient id="f" x1="277.13" x2="244.83" y1="9011.1" y2="8979.7" gradientTransform="translate(0 -8600)" gradientUnits="userSpaceOnUse">
			<stop offset="0"/>
			<stop stop-opacity=".1223" offset=".8777"/>
			<stop stop-opacity="0" offset="1"/>
		</linearGradient>
		<line class="st15" x1="241.6" x2="274.4" y1="383.8" y2="401.2"/>


				<linearGradient id="e" x1="280.44" x2="248.13" y1="9007.7" y2="8976.3" gradientTransform="translate(0 -8600)" gradientUnits="userSpaceOnUse">
				<stop offset="0"/>
				<stop stop-opacity=".1223" offset=".8777"/>
				<stop stop-opacity="0" offset="1"/>
			</linearGradient>
			<polygon class="st16" points="270.1 405.6 282 405.2 275.7 395.1"/>


</g>
<g class="st9">


			<linearGradient id="d" x1="327.18" x2="292.97" y1="8704.3" y2="8733.6" gradientTransform="translate(0 -8600)" gradientUnits="userSpaceOnUse">
			<stop offset="0"/>
			<stop stop-opacity=".1223" offset=".8777"/>
			<stop stop-opacity="0" offset="1"/>
		</linearGradient>
		<line class="st17" x1="296.8" x2="317.1" y1="137.1" y2="106.1"/>


				<linearGradient id="c" x1="324.11" x2="289.9" y1="8700.7" y2="8730" gradientTransform="translate(0 -8600)" gradientUnits="userSpaceOnUse">
				<stop offset="0"/>
				<stop stop-opacity=".1223" offset=".8777"/>
				<stop stop-opacity="0" offset="1"/>
			</linearGradient>
			<polygon class="st18" points="321.1 110.8 321.8 98.9 311.1 104.3"/>


</g>
<linearGradient id="b" x1="-6150.1" x2="-6150.1" y1="6791" y2="6757.2" gradientTransform="matrix(6.1232e-17 -1 1 6.1232e-17 -6452.3 -5725.7)" gradientUnits="userSpaceOnUse">
	<stop stop-color="#fff" offset="0"/>
	<stop stop-color="#fff" stop-opacity="0" offset="1"/>
</linearGradient>
<polygon class="st19" points="304.9 362.4 304.9 486.3 338.7 486.3 338.7 362.4"/>
<linearGradient id="a" x1="-3269.6" x2="-3269.6" y1="6958" y2="6924.2" gradientTransform="translate(3411.4 -6483.1)" gradientUnits="userSpaceOnUse">
	<stop stop-color="#fff" offset="0"/>
	<stop stop-color="#fff" stop-opacity="0" offset="1"/>
</linearGradient>
<polygon class="st20" points="203.8 441.1 79.9 441.1 79.9 474.9 203.8 474.9"/>
<text class="st0 st4 st8" transform="translate(208.13 317.16)">HONG KONG</text>
</svg>
