<?xml version="1.0" encoding="UTF-8"?>
<svg enable-background="new 0 0 339 491.8" version="1.1" viewBox="0 0 339 491.8" xml:space="preserve" xmlns="http://www.w3.org/2000/svg" xmlns:xlink="http://www.w3.org/1999/xlink">
<style type="text/css">
	.st0{fill:none;stroke:#C3C4C6;stroke-width:2;stroke-miterlimit:10;}
	.st1{opacity:0.5;fill:#383838;enable-background:new    ;}
	.st2{font-family:'Arial-BoldMT';}
	.st3{font-size:14px;}
	.st4{font-size:16px;}
	.st5{opacity:0.5;fill:none;stroke:#FF513F;stroke-width:1.5;stroke-miterlimit:10;enable-background:new    ;}
	.st6{opacity:0.5;}
	.st7{enable-background:new    ;}
	.st8{font-family:'Arial-ItalicMT';}
	.st9{font-size:10px;}
	.st10{opacity:0.5;enable-background:new    ;}
	.st11{font-family:'ArialMT';}
	.st12{font-size:12px;}
	.st13{fill:none;stroke:url(#c);stroke-width:4;stroke-miterlimit:10;}
	.st14{fill:url(#b);}
	.st15{fill:url(#a);}
</style>
<image transform="matrix(.2825 0 0 .2825 0 50.939)" width="1200" height="1497" enable-background="new" overflow="visible" xlink:href="../hk-flights.png">
</image>
<path class="st0" d="m190.4 183.6 5.1-2.1 1.8-2.1 2.6-4.1 2.1-3.2 2.6-0.5 2.9 0.2 4 2.4 5-2.6 6.9-2.6 2.1-4.1 3.7-1.5 4.7 1.5 4.5-0.3 4.5 0.9 7.2 1.9"/>
<text class="st1 st2 st3" transform="translate(56.895 32.627)">SALIDAS DE 13 A 15 HORAS</text>

	<text class="st2 st4" transform="translate(126.59 240.57)">Aeropuerto</text>

<path class="st5" d="m151.3 250.8-42.6 15.8c-4.5 1.7-7 6.6-5.8 11.2l71.4 196.6"/>
<path class="st5" d="m153.2 250.8-44.4 15.8c-4.5 1.7-7 6.6-5.8 11.2l73.3 196.6"/>
<path class="st5" d="m152.2 250.8-44.4 15.8c-4.5 1.7-7 6.6-5.8 11.2l69.5 196.6"/>
<path class="st5" d="m152.2 251.7-44.4 15.8c-4.5 1.7-7 6.6-5.8 11.2l67.6 195.6"/>
<path class="st5" d="m153.2 250.8-44.4 15.8c-4.5 1.7-7 6.6-5.8 11.2l38.3 94.2c0.2 0.7 0.5 1.4 0.9 2l73.1 100.4"/>
<path class="st5" d="m152.2 251.3-44.4 15.8c-4.5 1.7-7 6.6-5.8 11.2l65.6 195.6"/>
<g class="st6">
	<text class="st7" transform="translate(222.81 421)"><tspan class="st8 st9" x="0" y="0">MAR  DEL</tspan><tspan class="st8 st9" x="-12.2" y="12">SUR DE CHINA</tspan></text>
</g>
<text class="st10 st11 st12" transform="translate(141.88 154.99)">SHENZHEN</text>
<text class="st10 st2 st4" transform="translate(182.3 217.73)">HONG KONG</text>
<g class="st6">


			<linearGradient id="c" x1="125.4" x2="125.4" y1="-5554.3" y2="-5509.3" gradientTransform="matrix(1 0 0 -1 0 -5120)" gradientUnits="userSpaceOnUse">
			<stop offset="0"/>
			<stop stop-opacity=".1223" offset=".8777"/>
			<stop stop-opacity="0" offset="1"/>
		</linearGradient>
		<line class="st13" x1="120.2" x2="130.6" y1="389.8" y2="425.5"/>


				<linearGradient id="b" x1="130.05" x2="130.05" y1="-5554.3" y2="-5509.3" gradientTransform="matrix(1 0 0 -1 0 -5120)" gradientUnits="userSpaceOnUse">
				<stop offset="0"/>
				<stop stop-opacity=".1223" offset=".8777"/>
				<stop stop-opacity="0" offset="1"/>
			</linearGradient>
			<polygon class="st14" points="124.3 425.5 133 433.7 135.8 422.1"/>


</g>
<path class="st5" d="m152.3 251.8-45.3 26.8c-4.8 1.8-7.5 7-6.2 11.9l75.5 184.4"/>
<path class="st5" d="m151.3 251.8-45.3 26.8c-4.8 1.8-7.5 7-6.2 11.9l79.5 184.4"/>
<path class="st5" d="m150.3 251.8-45.3 26.8c-4.8 1.8-7.5 7-6.2 11.9l79.5 184.4"/>
<path class="st5" d="m152.3 251.8-45.3 26.8c-4.8 1.8-7.5 7-6.2 11.9l81.5 184.4"/>
<path class="st5" d="m150.3 251.8-45.3 26.8c-4.8 1.8-7.5 7-6.2 11.9l79.5 184.4"/>
<path class="st5" d="m150.3 251.8-45.3 26.8c-4.8 1.8-7.5 7-6.2 11.9l79.5 184.4"/>
<path class="st5" d="m152.3 251.8-30.5 23.1c-2.3 1.8-3.8 4.4-3.9 7.3l-1.8 27.6c-0.1 1.6 0.2 3.2 0.8 4.6l69.5 160.4"/>
<path class="st5" d="m152.3 251.8-45.3 26.8c-4.8 1.8-7.5 7-6.2 11.9l73.5 184.4"/>
<linearGradient id="a" x1="176.15" x2="176.15" y1="-5599.3" y2="-5531.8" gradientTransform="matrix(1 0 0 -1 0 -5120)" gradientUnits="userSpaceOnUse">
	<stop stop-color="#fff" offset="0"/>
	<stop stop-color="#fff" stop-opacity="0" offset="1"/>
</linearGradient>
<rect class="st15" x="114.2" y="411.8" width="123.9" height="67.5"/>
<circle cx="152.3" cy="250.9" r="3"/>
</svg>
