<?xml version="1.0" encoding="UTF-8"?>
<svg enable-background="new 0 0 600 222.5" version="1.1" viewBox="0 0 600 222.5" xml:space="preserve" xmlns="http://www.w3.org/2000/svg">
<style type="text/css">
	.st0{opacity:0.5;fill:#FF513F;enable-background:new    ;}
	.st1{fill:none;stroke:#000000;stroke-width:0.5;stroke-miterlimit:10;}
	.st2{opacity:0.4;fill:none;stroke:#000000;stroke-width:0.5;stroke-miterlimit:10;enable-background:new    ;}
	.st3{fill:#383838;stroke:#FFFFFF;stroke-miterlimit:10;}
	.st4{opacity:0.5;}
	.st5{fill:#383838;}
	.st6{font-family:'Arial';}
	.st7{font-size:12px;}
	.st8{enable-background:new    ;}
	.st9{fill:#4D4D4D;}
	.st10{font-family:'Arial';}
	.st11{font-size:14px;}
	.st12{fill:none;stroke:#383838;stroke-width:0.5;stroke-miterlimit:10;}
	.st13{fill:#FFFFFF;stroke:#383838;stroke-miterlimit:10;}
</style>
<rect class="st0" x="359.3" y="91.2" width="112.3" height="11.5"/>

	<line class="st1" x1="396.4" x2="396.4" y1="107" y2="87"/>
	<line class="st2" x1="583.3" x2="583.3" y1="99.8" y2="94.2"/>
	<line class="st2" x1="577.1" x2="577.1" y1="99.8" y2="94.2"/>
	<line class="st2" x1="570.9" x2="570.9" y1="99.8" y2="94.2"/>
	<line class="st2" x1="564.7" x2="564.7" y1="99.8" y2="94.2"/>
	<line class="st2" x1="558.4" x2="558.4" y1="99.8" y2="94.2"/>
	<line class="st2" x1="552.1" x2="552.1" y1="99.8" y2="94.2"/>
	<line class="st2" x1="545.9" x2="545.9" y1="99.8" y2="94.2"/>
	<line class="st2" x1="539.7" x2="539.7" y1="99.8" y2="94.2"/>
	<line class="st2" x1="533.5" x2="533.5" y1="99.8" y2="94.2"/>
	<line class="st2" x1="527.3" x2="527.3" y1="99.8" y2="94.2"/>
	<line class="st2" x1="521.1" x2="521.1" y1="99.8" y2="94.2"/>
	<line class="st2" x1="514.7" x2="514.7" y1="99.8" y2="94.2"/>
	<line class="st2" x1="508.5" x2="508.5" y1="99.8" y2="94.2"/>
	<line class="st2" x1="502.3" x2="502.3" y1="99.8" y2="94.2"/>
	<line class="st2" x1="496.1" x2="496.1" y1="99.8" y2="94.2"/>
	<line class="st2" x1="489.9" x2="489.9" y1="99.8" y2="94.2"/>
	<line class="st2" x1="483.7" x2="483.7" y1="99.8" y2="94.2"/>
	<line class="st2" x1="477.4" x2="477.4" y1="99.8" y2="94.2"/>
	<line class="st2" x1="471.1" x2="471.1" y1="99.8" y2="94.2"/>
	<line class="st2" x1="464.9" x2="464.9" y1="99.8" y2="94.2"/>
	<line class="st2" x1="458.7" x2="458.7" y1="99.8" y2="94.2"/>
	<line class="st2" x1="452.5" x2="452.5" y1="99.8" y2="94.2"/>
	<line class="st2" x1="446.3" x2="446.3" y1="99.8" y2="94.2"/>
	<line class="st2" x1="440" x2="440" y1="99.8" y2="94.2"/>
	<line class="st2" x1="433.8" x2="433.8" y1="99.8" y2="94.2"/>
	<line class="st2" x1="427.5" x2="427.5" y1="99.8" y2="94.2"/>
	<line class="st2" x1="421.3" x2="421.3" y1="99.8" y2="94.2"/>
	<line class="st2" x1="415.1" x2="415.1" y1="99.8" y2="94.2"/>
	<line class="st2" x1="408.9" x2="408.9" y1="99.8" y2="94.2"/>
	<line class="st2" x1="402.6" x2="402.6" y1="99.8" y2="94.2"/>
	<line class="st1" x1="203.2" x2="203.2" y1="107" y2="87"/>
	<line class="st2" x1="390.2" x2="390.2" y1="99.8" y2="94.2"/>
	<line class="st2" x1="383.9" x2="383.9" y1="99.8" y2="94.2"/>
	<line class="st2" x1="377.7" x2="377.7" y1="99.8" y2="94.2"/>
	<line class="st2" x1="371.5" x2="371.5" y1="99.8" y2="94.2"/>
	<line class="st2" x1="365.2" x2="365.2" y1="99.8" y2="94.2"/>
	<line class="st2" x1="359" x2="359" y1="99.8" y2="94.2"/>
	<line class="st2" x1="352.8" x2="352.8" y1="99.8" y2="94.2"/>
	<line class="st2" x1="346.6" x2="346.6" y1="99.8" y2="94.2"/>
	<line class="st2" x1="340.3" x2="340.3" y1="99.8" y2="94.2"/>
	<line class="st2" x1="334.1" x2="334.1" y1="99.8" y2="94.2"/>
	<line class="st2" x1="327.8" x2="327.8" y1="99.8" y2="94.2"/>
	<line class="st2" x1="321.6" x2="321.6" y1="99.8" y2="94.2"/>
	<line class="st2" x1="315.4" x2="315.4" y1="99.8" y2="94.2"/>
	<line class="st2" x1="309.2" x2="309.2" y1="99.8" y2="94.2"/>
	<line class="st2" x1="303" x2="303" y1="99.8" y2="94.2"/>
	<line class="st2" x1="296.7" x2="296.7" y1="99.8" y2="94.2"/>
	<line class="st2" x1="290.4" x2="290.4" y1="99.8" y2="94.2"/>
	<line class="st2" x1="284.2" x2="284.2" y1="99.8" y2="94.2"/>
	<line class="st2" x1="278" x2="278" y1="99.8" y2="94.2"/>
	<line class="st2" x1="271.8" x2="271.8" y1="99.8" y2="94.2"/>
	<line class="st2" x1="265.6" x2="265.6" y1="99.8" y2="94.2"/>
	<line class="st2" x1="259.4" x2="259.4" y1="99.8" y2="94.2"/>
	<line class="st2" x1="253" x2="253" y1="99.8" y2="94.2"/>
	<line class="st2" x1="246.8" x2="246.8" y1="99.8" y2="94.2"/>
	<line class="st2" x1="240.6" x2="240.6" y1="99.8" y2="94.2"/>
	<line class="st2" x1="234.4" x2="234.4" y1="99.8" y2="94.2"/>
	<line class="st2" x1="228.2" x2="228.2" y1="99.8" y2="94.2"/>
	<line class="st2" x1="222" x2="222" y1="99.8" y2="94.2"/>
	<line class="st2" x1="215.7" x2="215.7" y1="99.8" y2="94.2"/>
	<line class="st2" x1="209.4" x2="209.4" y1="99.8" y2="94.2"/>
	<line class="st1" x1="16.3" x2="16.3" y1="107" y2="87"/>
	<line class="st2" x1="197" x2="197" y1="99.8" y2="94.2"/>
	<line class="st2" x1="190.8" x2="190.8" y1="99.8" y2="94.2"/>
	<line class="st2" x1="184.6" x2="184.6" y1="99.8" y2="94.2"/>
	<line class="st2" x1="178.3" x2="178.3" y1="99.8" y2="94.2"/>
	<line class="st2" x1="172.1" x2="172.1" y1="99.8" y2="94.2"/>
	<line class="st2" x1="165.8" x2="165.8" y1="99.8" y2="94.2"/>
	<line class="st2" x1="159.6" x2="159.6" y1="99.8" y2="94.2"/>
	<line class="st2" x1="153.4" x2="153.4" y1="99.8" y2="94.2"/>
	<line class="st2" x1="147.2" x2="147.2" y1="99.8" y2="94.2"/>
	<line class="st2" x1="140.9" x2="140.9" y1="99.8" y2="94.2"/>
	<line class="st2" x1="134.7" x2="134.7" y1="99.8" y2="94.2"/>
	<line class="st2" x1="128.5" x2="128.5" y1="99.8" y2="94.2"/>
	<line class="st2" x1="122.2" x2="122.2" y1="99.8" y2="94.2"/>
	<line class="st2" x1="116" x2="116" y1="99.8" y2="94.2"/>
	<line class="st2" x1="109.8" x2="109.8" y1="99.8" y2="94.2"/>
	<line class="st2" x1="103.5" x2="103.5" y1="99.8" y2="94.2"/>
	<line class="st2" x1="97.3" x2="97.3" y1="99.8" y2="94.2"/>
	<line class="st2" x1="91.1" x2="91.1" y1="99.8" y2="94.2"/>
	<line class="st2" x1="84.9" x2="84.9" y1="99.8" y2="94.2"/>
	<line class="st2" x1="78.6" x2="78.6" y1="99.8" y2="94.2"/>
	<line class="st2" x1="72.4" x2="72.4" y1="99.8" y2="94.2"/>
	<line class="st2" x1="66.2" x2="66.2" y1="99.8" y2="94.2"/>
	<line class="st2" x1="59.9" x2="59.9" y1="99.8" y2="94.2"/>
	<line class="st2" x1="53.7" x2="53.7" y1="99.8" y2="94.2"/>
	<line class="st2" x1="47.5" x2="47.5" y1="99.8" y2="94.2"/>
	<line class="st2" x1="41.3" x2="41.3" y1="99.8" y2="94.2"/>
	<line class="st2" x1="35" x2="35" y1="99.8" y2="94.2"/>
	<line class="st2" x1="28.8" x2="28.8" y1="99.8" y2="94.2"/>
	<line class="st2" x1="22.5" x2="22.5" y1="99.8" y2="94.2"/>

<circle class="st3" cx="359.1" cy="97" r="4.8"/>
<circle class="st3" cx="446.3" cy="97" r="4.8"/>
<circle class="st3" cx="452.5" cy="97" r="4.8"/>
<circle class="st3" cx="458.7" cy="97" r="4.8"/>
<circle class="st3" cx="464.9" cy="97" r="4.8"/>
<circle class="st3" cx="471.1" cy="97" r="4.8"/>
<g class="st4">
	<text class="st5 st6 st7" transform="translate(91.082 72.632)">JUNIO</text>
	<text class="st5 st6 st7" transform="translate(282.38 124.45)">JULIO</text>
	<text class="st5 st6 st7" transform="translate(478.05 72.632)">AGOSTO</text>
</g>

	<text class="st8" transform="translate(9.6049 148.83)"><tspan class="st9 st6 st7" x="0" y="0">Comienza la protesta</tspan><tspan class="st9 st6 st7" x="7" y="14">por el proyecto de </tspan><tspan class="st9 st6 st7" x="10" y="28">ley de extradición</tspan></text>

<text class="st8" transform="translate(285.94 27.485)"><tspan class="st9 st10 st11" x="0" y="0">Primera demostración </tspan><tspan class="st9 st10 st11" x="8.2" y="16.8">en la sala de llegada</tspan></text>
<line class="st12" x1="65.6" x2="65.6" y1="133" y2="98.2"/>
<line class="st12" x1="361.8" x2="361.8" y1="93.6" y2="50.2"/>

	<text class="st8" transform="translate(393.16 148.83)"><tspan class="st9 st10 st7" x="0" y="0">5 días ininterrumpidos</tspan><tspan class="st9 st10 st7" x="-3.7" y="14.4">de manifestaciones que</tspan><tspan class="st9 st10 st7" x="-1.7" y="28.8">terminaron con más de</tspan><tspan class="st9 st10 st7" x="-0.7" y="43.2">300 vuelos cancelados</tspan></text>

<line class="st12" x1="457.5" x2="457.5" y1="133" y2="101.6"/>
<circle class="st13" cx="66.3" cy="97" r="4.8"/>
</svg>
